<svg xmlns="http://www.w3.org/2000/svg" xmlns:xlink="http://www.w3.org/1999/xlink" viewBox="0 0 370.76 175.71"><defs><style>.cls-1,.cls-6,.cls-7{fill:none;}.cls-2{opacity:0.55;}.cls-3{clip-path:url(#clip-path);}.cls-4{clip-path:url(#clip-path-2);}.cls-5{fill:#862679;}.cls-6{stroke:#231f20;stroke-width:29px;}.cls-6,.cls-7{stroke-miterlimit:10;}.cls-7{stroke:#fff;stroke-width:9px;}.cls-8{fill:#fdda00;}</style><clipPath id="clip-path" transform="translate(59.05 41.12)"><polygon class="cls-1" points="257.67 46.73 287.19 0 0 16.1 21.7 46.73 257.67 46.73"/></clipPath><clipPath id="clip-path-2" transform="translate(59.05 41.12)"><polygon class="cls-1" points="-6.03 16.1 293.99 16.1 289.68 47.08 -29.31 47.08 -6.03 16.1"/></clipPath></defs><g id="Layer_2" data-name="Layer 2"><g id="Assets_Sample" data-name="Assets &amp; Sample"><g class="cls-2"><g class="cls-3"><g class="cls-4"><polygon class="cls-5" points="316.73 87.84 80.75 87.84 66.38 57.22 336.09 57.22 316.73 87.84"/><line class="cls-6" x1="365.37" y1="30.93" x2="86.07" y2="142.93"/><line class="cls-7" x1="356.71" y1="33.47" x2="77.41" y2="145.47"/><line class="cls-6" x1="6.04" y1="13.18" x2="332.27" y2="162.53"/><line class="cls-7" x1="7.53" y1="13.87" x2="333.77" y2="163.22"/></g><polygon class="cls-8" points="245.82 81.71 211.8 81.71 200.59 57.77 199.4 57.77 188.24 81.78 154.73 81.06 162.41 88.2 238.58 88.2 245.82 81.71"/><polygon class="cls-1" points="61.78 49.85 80.75 87.84 324.38 87.84 338.33 49.85 61.78 49.85"/></g></g></g></g></svg>